<?xml version="1.0" encoding="UTF-8"?><svg xmlns="http://www.w3.org/2000/svg" viewBox="0 0 669.78 419.67"><defs><style>.cls-1,.cls-2{fill:#fff;}.cls-3{stroke:#fff;}.cls-3,.cls-4{fill:#c8e9ef;}.cls-3,.cls-5{stroke-miterlimit:10;}.cls-6{letter-spacing:0em;}.cls-2{font-family:SecularOne-Regular, 'Secular One';font-size:97.77px;}.cls-5{fill:#1a0b0c;stroke:#231f20;}.cls-7{letter-spacing:-.02em;}</style></defs><g id="Veren"><line class="cls-5" x1="202.73" y1="159.05" x2="182.32" y2="117.54"/><line class="cls-5" x1="228.11" y1="189.86" x2="202.73" y2="159.05"/><line class="cls-5" x1="257.09" y1="209" x2="228.11" y2="189.86"/><line class="cls-5" x1="297.57" y1="217.32" x2="257.09" y2="209"/><text class="cls-2" transform="translate(64.81 346.22)"><tspan x="0" y="0">DE</tspan><tspan class="cls-7" x="118.8" y="0"> </tspan><tspan x="135.91" y="0">VLE</tspan><tspan class="cls-6" x="298.11" y="0">U</tspan><tspan x="366.95" y="0">GEL</tspan></text><g><path class="cls-1" d="M422.49,94.79c2.14-6.78,136.14-49.79,169.61,2.51,31.05,48.52-134.3,30.81-169.61-2.51Z"/><path class="cls-1" d="M411.31,111.78s136.65-18.37,167.31,30.39c30.67,48.76-135.78,6.53-167.31-30.39Z"/><path class="cls-1" d="M408.7,115.38s131.73,14.6,149.01,67.2c17.28,52.61-128.17-25.44-149.01-67.2Z"/><path class="cls-1" d="M389.81,139.08s129.86,26.49,142.3,80.45c12.44,53.96-125.34-36.97-142.3-80.45Z"/><path class="cls-1" d="M360.73,170.25s124.77,14.39,131.1,67.87c6.33,53.48-119.18-25.44-131.1-67.87Z"/></g><g><path class="cls-1" d="M244.42,94.79c-2.14-6.78-136.14-49.79-169.61,2.51-31.05,48.52,134.3,30.81,169.61-2.51Z"/><path class="cls-1" d="M255.59,111.78s-136.65-18.37-167.31,30.39c-30.67,48.76,135.78,6.53,167.31-30.39Z"/><path class="cls-1" d="M258.21,115.38s-131.73,14.6-149.01,67.2c-17.28,52.61,128.17-25.44,149.01-67.2Z"/><path class="cls-1" d="M277.09,139.08s-129.86,26.49-142.3,80.45c-12.44,53.96,125.34-36.97,142.3-80.45Z"/><path class="cls-1" d="M306.17,170.25s-124.77,14.39-131.1,67.87c-6.33,53.48,119.18-25.44,131.1-67.87Z"/></g></g><g id="Vleugels"><g><path class="cls-4" d="M397.98,129.57c4.74-14.78,14.17-27.71,26.58-36.4,18.2-12.76,40.73-19.22,66.96-19.22,1.67,0,3.38,.03,5.08,.08-.88,4.72-7.5,38.17-24.99,71.2-11.02,20.8-24.13,37.37-38.97,49.25-18.34,14.68-39.41,22.2-62.61,22.35l27.96-87.25Z"/><path class="cls-1" d="M491.51,73.45v1h0c1.48,0,2.98,.02,4.49,.06-1.22,6.37-7.95,38.59-24.82,70.46-10.99,20.75-24.06,37.27-38.84,49.11-18.08,14.47-38.8,21.95-61.62,22.24l27.75-86.59c4.7-14.68,14.07-27.51,26.39-36.14,18.11-12.7,40.55-19.13,66.67-19.13v-1m0,0c-31.37,0-53.06,9.38-67.24,19.31-12.71,8.91-22.03,21.87-26.77,36.66l-28.17,87.91c103.45,0,127.86-143.78,127.86-143.78-1.93-.07-3.82-.1-5.68-.1h0Z"/></g><g><path class="cls-4" d="M296.88,216.82c-23.21-.15-44.27-7.66-62.61-22.35-14.84-11.88-27.95-28.45-38.97-49.25-17.49-33.03-24.12-66.47-24.99-71.2,1.71-.05,3.41-.08,5.09-.08,26.35,0,48.96,6.53,67.2,19.4,12.27,8.66,21.59,21.42,26.24,35.94l28.05,87.54Z"/><path class="cls-1" d="M175.39,74.45c26.25,0,48.76,6.5,66.91,19.31,12.18,8.59,21.43,21.27,26.05,35.68l27.84,86.88c-22.81-.29-43.53-7.76-61.6-22.22-14.79-11.83-27.85-28.35-38.84-49.08-16.88-31.86-23.63-64.12-24.85-70.5,1.51-.04,3.01-.06,4.49-.06m0-1c-1.86,0-3.75,.03-5.68,.1,0,0,24.41,143.78,127.86,143.78l-28.26-88.19c-4.68-14.6-13.9-27.36-26.43-36.19-14.18-10-35.94-19.49-67.49-19.49h0Z"/></g></g><g id="Land"><path class="cls-3" d="M408.65,175.42c0-27.19-14.21-51.06-35.62-64.59-11.79-7.45-25.76-11.77-40.74-11.77-42.17,0-76.36,34.19-76.36,76.36s34.19,76.36,76.36,76.36,76.36-34.19,76.36-76.36Z"/><g><path class="cls-1" d="M367.33,107.55s-39.95,31.53-35.04,45.77c3.93,9.82,27.11-15.96,35.04-10.31,7.93,5.65-34.06,12.52-35.04,21.85-.98,9.33,14,16.7,21.36,16.45,.98,6.87,4.91,37.57,13.26,37.57s7.12-58.19,14.98-62.61c7.86-4.42,22.59-5.81,22.59-5.81,0,0-9.47-29.74-37.15-42.9Z"/><path class="cls-1" d="M335.92,129.18s-6.16,5.28-3.63,5.37,4.8,0,4.55-1.01-.92-4.36-.92-4.36Z"/><path class="cls-1" d="M288.43,122.62c-1.73-1.6-1.1-4.46,1.14-5.18,8.94-2.88,27-8.14,28.17-3.94,1.57,5.59-12.97,22.15-15.44,21.03-1.67-.76-9.2-7.59-13.88-11.91Z"/><path class="cls-1" d="M278.65,121.08s17.18,10.46,24,22.98-29.76,27.29-24,38.03c5.76,10.74,13.6-.22,24,7.83,10.4,8.05-3.47,46.75-3.47,46.75,0,0-20.36-21.92-15.44-35.79-8.72,0-10.96-18.12-9.84-18.34-1.34,.45-17.76-12.76-17.76-12.76,0,0-.25-25.6,22.51-48.7Z"/><path class="cls-1" d="M282.74,179.96c7.97-2.82,11.38-2.82,15.63,0s-16.27,2.68-15.63,0Z"/></g></g></svg>